# xmcd
#
# Track frame offsets: 
#        150
#        25307
#        50952
#        71442
#        102010
#        127817
#        157305
#        177627
#        203695
#        226392
#        251020
#        272325
#
# Disc length: 3905 seconds
#
# Revision: 1
# Processed by: cddbd v1.5.2PL0 Copyright (c) Steve Scherf et al.
# Submitted via: ExactAudioCopy v0.95a5
#
DISCID=a80f3f0c
DTITLE=Men Of Vizion - k-Personal
DYEAR=1996
DGENRE=R&B
TTITLE0=That's Alright
TTITLE1=Instant Love
TTITLE2=House Keeper
TTITLE3=When You Need Someone
TTITLE4=Forgive Me
TTITLE5=Personal
TTITLE6=Joyride (feat. Tasha Scott)
TTITLE7=You Told Me You Loved Me
TTITLE8=Do Thangz
TTITLE9=Show You The Way To Go
TTITLE10=It's Only Just A Dream
TTITLE11=Night And Day
EXTD=
EXTT0=
EXTT1=
EXTT2=
EXTT3=
EXTT4=
EXTT5=
EXTT6=
EXTT7=
EXTT8=
EXTT9=
EXTT10=
EXTT11=
PLAYORDER=
